<?xml version="1.0" standalone="no"?>
<!DOCTYPE svg PUBLIC "-//W3C//DTD SVG 20010904//EN"
 "http://www.w3.org/TR/2001/REC-SVG-20010904/DTD/svg10.dtd">
<svg version="1.0" xmlns="http://www.w3.org/2000/svg"
 width="768.000000pt" height="768.000000pt" viewBox="0 0 768.000000 768.000000"
 preserveAspectRatio="xMidYMid meet">
<metadata>
Created by potrace 1.11, written by Peter Selinger 2001-2013
</metadata>
<g transform="translate(0.000000,768.000000) scale(0.100000,-0.100000)"
fill="#000000" stroke="none">
<path d="M2093 7658 c-13 -6 -23 -15 -23 -20 0 -4 -7 -8 -15 -8 -8 0 -15 -7
-15 -17 0 -9 -3 -13 -7 -10 -3 4 -14 -4 -23 -19 -10 -14 -21 -26 -26 -26 -11
1 -104 -87 -104 -98 0 -4 -9 -10 -20 -13 -11 -3 -20 -12 -20 -21 0 -9 -6 -16
-12 -16 -7 0 -32 -19 -55 -43 -24 -23 -47 -46 -53 -52 -44 -44 -88 -100 -84
-106 2 -4 -5 -10 -16 -14 -11 -3 -20 -11 -20 -17 0 -6 -11 -21 -26 -34 -14
-13 -22 -24 -18 -24 4 0 -1 -7 -12 -15 -10 -8 -16 -15 -13 -15 4 0 -11 -19
-32 -42 -22 -24 -39 -47 -39 -51 0 -5 -6 -15 -12 -22 -26 -29 -38 -44 -38 -49
0 -3 -13 -20 -30 -38 -16 -18 -30 -36 -30 -40 0 -4 -13 -27 -30 -51 -16 -25
-30 -50 -30 -56 0 -6 -4 -11 -10 -11 -5 0 -10 -5 -10 -11 0 -6 -9 -24 -21 -40
-11 -16 -17 -29 -12 -29 4 0 1 -6 -7 -13 -15 -12 -31 -40 -95 -165 -17 -34
-34 -60 -37 -57 -2 3 -5 -1 -5 -9 0 -22 -24 -76 -34 -76 -5 0 -8 -3 -7 -7 2
-9 -61 -146 -71 -153 -12 -9 -30 -73 -24 -83 3 -6 1 -7 -5 -3 -7 4 -14 -4 -17
-21 -4 -15 -10 -37 -15 -48 -39 -91 -48 -115 -43 -115 3 0 0 -6 -6 -13 -6 -8
-8 -17 -4 -20 3 -4 0 -13 -6 -21 -7 -8 -10 -20 -6 -26 3 -5 1 -10 -5 -10 -7 0
-10 -7 -6 -15 3 -8 1 -15 -5 -15 -6 0 -7 -4 -4 -10 3 -5 1 -10 -6 -10 -7 0
-10 -3 -7 -6 3 -3 -2 -32 -12 -65 -10 -32 -16 -59 -13 -59 3 0 0 -7 -7 -15 -7
-8 -9 -15 -6 -15 4 0 2 -8 -3 -18 -6 -11 -13 -32 -16 -48 -8 -39 -13 -59 -15
-59 -3 0 -12 -42 -13 -67 -1 -16 -4 -28 -7 -28 -5 0 -9 -19 -12 -57 -1 -7 -6
-13 -11 -13 -5 0 -4 -6 2 -14 8 -9 8 -15 2 -18 -6 -1 -13 -23 -16 -48 -6 -48
-12 -91 -21 -153 -4 -20 -10 -40 -15 -43 -5 -3 -5 -13 1 -24 6 -11 6 -21 1
-24 -5 -4 -8 -17 -6 -31 1 -14 -2 -28 -7 -31 -4 -3 -6 -10 -2 -15 3 -5 0 -16
-6 -24 -9 -11 -9 -15 -1 -15 9 0 9 -5 0 -21 -8 -16 -8 -20 1 -14 9 5 10 2 3
-11 -5 -11 -9 -38 -9 -61 1 -24 -3 -43 -7 -43 -5 0 -4 -6 2 -13 6 -8 8 -16 5
-19 -8 -8 -19 -194 -14 -223 1 -5 1 -14 0 -20 -6 -29 -6 -75 1 -75 4 0 4 -13
-1 -30 -5 -18 -5 -32 1 -35 5 -4 5 -13 -1 -24 -5 -10 -7 -20 -5 -23 4 -4 18
-123 19 -160 0 -10 3 -18 7 -18 4 0 6 -11 4 -25 -1 -14 1 -25 5 -25 5 0 7 -8
5 -17 -1 -10 1 -25 6 -34 4 -8 10 -29 13 -45 2 -16 5 -29 6 -29 1 0 4 -13 6
-30 3 -16 7 -37 11 -45 3 -8 5 -20 4 -27 -1 -6 3 -14 8 -18 6 -3 8 -12 4 -20
-3 -8 -1 -15 5 -15 6 0 16 -23 23 -50 7 -27 17 -50 21 -50 5 0 6 -4 3 -10 -3
-5 -2 -10 4 -10 5 0 8 -11 6 -25 -1 -14 2 -25 6 -25 5 0 9 -5 9 -10 0 -6 9
-29 19 -51 11 -21 16 -37 12 -35 -10 7 92 -198 104 -206 6 -4 7 -8 3 -8 -4 0
6 -23 22 -50 16 -28 27 -50 23 -50 -3 0 0 -8 8 -17 8 -10 24 -36 34 -58 11
-22 23 -43 28 -46 4 -3 9 -15 12 -27 2 -11 9 -30 15 -42 10 -18 8 -24 -12 -41
-13 -11 -33 -29 -46 -40 -16 -16 -31 -20 -57 -17 -19 2 -35 1 -35 -3 0 -10
-34 -5 -42 6 -5 7 -8 6 -8 0 0 -6 -31 -12 -72 -13 -40 -2 -79 -8 -87 -15 -12
-10 -13 -9 -6 3 5 8 -19 -12 -52 -45 -33 -33 -58 -66 -56 -72 3 -7 0 -13 -6
-13 -9 0 -11 -34 -10 -115 1 -93 4 -115 16 -115 8 0 12 -4 9 -8 -10 -17 80
-98 122 -110 23 -7 42 -17 42 -23 0 -5 6 -9 12 -8 21 3 78 -22 78 -34 0 -6 3
-7 7 -4 3 4 17 0 30 -8 13 -9 23 -13 23 -10 0 3 13 -1 30 -10 16 -8 40 -15 55
-15 14 0 25 -4 25 -8 0 -4 10 -9 23 -9 21 -1 62 -10 62 -13 0 -1 11 -4 25 -6
14 -3 41 -8 60 -13 19 -5 64 -8 100 -7 36 1 77 -2 93 -6 15 -3 25 -3 22 2 -3
5 9 8 27 7 18 0 61 2 95 6 58 6 62 5 78 -19 9 -14 24 -34 33 -44 9 -10 26 -30
37 -45 11 -14 27 -34 35 -44 8 -10 29 -36 45 -57 17 -21 42 -52 57 -69 81 -90
121 -136 141 -161 12 -16 31 -38 42 -50 11 -12 36 -40 55 -64 19 -23 43 -51
53 -61 9 -10 17 -22 17 -26 0 -3 27 -32 60 -65 33 -32 60 -63 60 -70 0 -6 3
-8 6 -5 7 7 44 -30 44 -43 0 -4 11 -13 25 -20 14 -7 25 -17 25 -21 0 -4 25
-33 56 -63 30 -31 52 -56 47 -56 -4 0 4 -8 20 -18 15 -10 25 -21 21 -24 -3 -4
4 -9 15 -13 12 -3 21 -10 21 -15 0 -12 151 -160 163 -160 6 0 8 -2 5 -5 -6 -7
100 -115 113 -115 5 0 9 -5 9 -11 0 -13 138 -149 151 -149 6 0 7 -4 4 -10 -3
-5 -2 -10 3 -10 5 0 23 -13 40 -30 18 -16 36 -30 42 -30 5 0 10 -8 10 -17 0
-9 3 -14 6 -11 3 4 23 -11 44 -33 21 -21 40 -39 43 -39 4 0 25 -18 47 -40 22
-22 43 -40 46 -40 3 0 28 -23 56 -50 28 -28 54 -50 60 -50 5 0 6 -4 3 -10 -3
-5 -1 -10 5 -10 6 0 22 -11 35 -25 14 -13 25 -22 25 -20 0 4 31 -24 80 -71 14
-13 30 -24 37 -24 6 0 14 -9 18 -20 3 -11 9 -19 13 -17 7 2 28 -15 78 -60 14
-13 29 -23 35 -23 5 0 9 -7 9 -16 0 -8 4 -13 8 -10 5 3 21 -8 36 -24 33 -36
81 -47 118 -27 15 8 25 17 21 20 -3 4 -1 7 5 7 12 0 57 36 93 74 11 11 19 17
19 15 0 -3 28 21 63 53 34 32 68 58 76 58 8 0 12 3 8 6 -5 5 28 44 38 44 7 0
63 50 88 77 11 12 24 20 29 17 4 -3 8 -1 8 5 0 6 21 30 47 53 26 24 55 51 65
60 10 10 23 18 29 18 5 0 7 4 4 10 -3 5 -3 10 2 10 13 0 78 62 75 71 -1 5 2 9
7 9 14 0 93 73 299 277 107 106 198 193 203 193 5 0 9 4 9 9 0 5 18 27 40 49
22 22 40 37 40 34 0 -2 10 8 22 24 28 36 52 63 100 114 20 21 34 41 31 44 -4
3 1 6 10 6 10 0 17 7 17 15 0 8 3 14 8 12 4 -1 8 0 8 3 1 3 42 46 90 97 97 99
173 183 166 183 -2 0 3 6 10 14 8 7 34 37 59 66 24 29 50 58 57 66 6 7 12 18
12 24 0 6 5 8 10 5 6 -3 10 -2 10 3 0 5 8 18 18 29 9 12 33 40 52 63 19 24 42
50 50 58 8 8 36 42 62 76 26 34 54 69 62 78 9 10 16 21 16 26 0 4 8 15 18 23
9 9 24 26 32 38 8 13 23 33 32 44 10 12 21 27 26 32 4 6 18 26 32 45 13 19 29
38 35 42 5 4 6 8 2 8 -5 0 -2 7 5 15 29 32 38 45 38 53 0 5 9 17 20 27 11 10
20 24 20 32 0 7 7 16 15 19 8 4 15 10 15 16 0 12 48 77 74 101 11 10 35 27 53
38 18 11 33 25 33 30 0 5 3 8 8 7 12 -3 62 24 62 34 0 4 7 8 15 8 8 0 23 8 33
17 10 10 25 19 33 21 7 2 16 7 19 10 6 8 38 29 60 39 15 7 73 63 65 63 -2 0
21 26 53 58 55 56 88 98 90 115 0 5 12 19 27 33 14 13 22 24 18 24 -4 0 -3 4
3 8 12 8 53 94 82 172 11 30 23 64 28 75 10 29 14 46 18 80 2 17 7 39 12 50 4
11 8 67 8 125 -1 111 -4 143 -27 250 -2 8 -16 56 -32 105 -16 50 -28 106 -27
125 1 19 3 85 4 145 1 62 7 113 13 117 7 5 6 8 -1 8 -12 0 -12 29 1 49 5 9 4
12 -2 8 -7 -5 -11 8 -11 36 1 75 -5 122 -16 136 -9 12 -8 13 3 6 10 -6 12 -4
6 4 -7 13 -15 89 -18 188 -1 28 -5 49 -9 47 -4 -3 -7 4 -7 13 1 23 -7 87 -16
138 -4 22 -8 54 -10 70 -1 17 -8 50 -14 74 -7 23 -10 49 -7 56 3 8 1 15 -4 17
-5 2 -10 18 -12 36 -1 17 -5 32 -8 32 -3 0 -7 12 -8 27 -2 27 -27 118 -43 161
-5 13 -7 28 -4 33 4 5 1 9 -4 9 -6 0 -10 3 -10 8 1 4 1 9 -1 12 -1 3 -4 16 -6
29 -2 14 -11 38 -19 53 -7 16 -10 26 -5 23 5 -3 2 8 -6 24 -8 17 -17 40 -19
52 -2 11 -9 27 -16 35 -6 8 -8 14 -4 14 4 0 1 8 -6 17 -8 9 -9 14 -3 10 7 -4
3 10 -7 30 -10 20 -22 52 -25 70 -3 18 -9 33 -13 33 -4 0 -8 7 -9 15 -1 8 -3
22 -4 30 -1 8 -5 15 -10 15 -5 0 -6 5 -3 10 3 6 1 10 -4 10 -6 0 -11 3 -10 8
2 15 -14 52 -23 52 -5 0 -7 4 -3 9 3 5 1 12 -5 16 -6 4 -8 10 -6 14 3 4 -2 17
-12 27 -9 10 -19 28 -20 39 -2 11 -10 27 -17 35 -8 8 -14 17 -15 20 -6 31 -14
49 -19 46 -4 -3 -8 7 -9 22 -1 14 -6 28 -10 31 -9 7 -20 32 -18 42 0 4 -8 16
-18 28 -11 12 -16 21 -12 21 4 0 -2 10 -13 22 -11 11 -18 24 -16 28 3 5 -2 11
-11 14 -8 3 -13 10 -10 15 4 5 2 11 -3 13 -5 1 -31 41 -60 88 -28 47 -60 96
-71 107 -11 12 -20 27 -20 33 0 5 -5 10 -12 10 -6 0 -9 3 -5 6 3 3 1 11 -4 18
-40 48 -53 64 -67 89 -9 15 -20 27 -24 27 -4 0 -8 4 -8 10 0 5 -6 18 -14 27
-77 94 -106 133 -106 143 0 6 -4 8 -10 5 -6 -3 -10 -2 -10 2 0 5 -22 33 -50
63 -27 30 -50 57 -50 61 0 16 -195 198 -224 208 -6 2 -17 12 -24 23 -7 10 -17
18 -22 18 -9 0 -36 19 -65 47 -7 7 -15 9 -19 6 -3 -4 -6 -1 -6 7 0 7 -15 1
-37 -16 -21 -15 -35 -24 -31 -19 6 7 -27 45 -39 45 -2 0 -24 -19 -48 -41 -25
-23 -45 -38 -45 -34 0 4 -13 -4 -28 -17 -53 -43 -95 -73 -96 -68 -1 3 -9 -2
-18 -10 -9 -8 -14 -18 -11 -22 2 -5 -5 -8 -17 -8 -12 0 -18 -4 -15 -10 3 -5
-1 -10 -9 -10 -9 0 -16 -5 -16 -11 0 -5 -5 -7 -10 -4 -6 3 -13 -1 -16 -9 -3
-9 -12 -16 -20 -16 -8 0 -14 -5 -14 -12 0 -6 -3 -9 -6 -5 -4 3 -23 -5 -43 -18
-19 -14 -41 -25 -48 -25 -7 0 -13 -4 -13 -8 0 -4 -29 -23 -65 -42 -36 -19 -65
-38 -65 -43 0 -4 -4 -6 -9 -2 -5 3 -16 -1 -24 -9 -8 -8 -17 -13 -20 -10 -3 3
-17 -2 -31 -11 -14 -10 -26 -14 -26 -10 0 4 -7 2 -15 -5 -8 -7 -15 -9 -15 -4
0 5 -4 3 -8 -4 -5 -7 -21 -15 -37 -18 -15 -3 -36 -9 -46 -15 -27 -14 -189 -68
-189 -63 0 3 -8 0 -19 -5 -10 -6 -33 -12 -50 -13 -17 -1 -31 -5 -31 -8 0 -6
-11 -7 -92 -13 -21 -1 -38 -6 -38 -10 0 -5 -3 -6 -7 -4 -5 3 -17 1 -28 -3 -11
-4 -30 -3 -43 1 -15 6 -21 5 -17 -1 3 -6 -3 -10 -14 -10 -11 0 -22 -4 -25 -9
-6 -9 -85 -6 -94 4 -3 2 -13 0 -23 -6 -13 -7 -19 -6 -19 1 0 6 -5 8 -11 5 -18
-12 -59 -13 -59 -2 0 7 -4 7 -11 0 -8 -8 -20 -8 -35 -3 -17 7 -24 6 -24 -2 0
-9 -3 -9 -12 0 -7 7 -17 8 -30 1 -13 -7 -18 -6 -18 3 0 9 -3 9 -11 1 -7 -7
-21 -8 -39 -3 -18 5 -32 4 -39 -3 -8 -8 -11 -8 -11 1 0 7 -11 12 -24 12 -13 0
-27 6 -29 13 -4 8 -6 9 -6 0 -1 -8 -10 -9 -31 -3 -17 5 -33 9 -35 9 -3 1 -6 1
-7 2 -2 0 -12 2 -23 4 -35 5 -79 14 -112 24 -18 5 -33 7 -33 3 0 -3 -5 -1 -11
5 -6 6 -18 9 -25 6 -8 -3 -14 -1 -14 5 0 6 -8 9 -17 7 -10 -1 -22 0 -28 4 -5
3 -14 7 -20 8 -60 14 -84 22 -105 34 -14 7 -27 14 -30 14 -12 3 -68 28 -110
48 -25 12 -48 21 -52 19 -5 -1 -8 3 -8 10 0 6 -3 8 -7 5 -3 -4 -12 -2 -20 4
-7 6 -13 8 -13 3 0 -5 -4 -4 -8 1 -6 9 -78 47 -92 49 -21 4 -70 30 -70 39 0 6
-3 7 -6 4 -8 -7 -58 19 -88 46 -11 9 -26 17 -33 17 -7 0 -13 5 -13 10 0 6 -7
10 -15 10 -9 0 -18 7 -22 16 -3 8 -11 13 -18 10 -6 -2 -18 4 -26 15 -7 10 -19
19 -26 19 -7 0 -13 4 -13 8 0 4 -12 15 -27 24 -16 9 -40 28 -55 42 -15 14 -31
26 -36 26 -6 0 -13 7 -16 16 -4 9 -9 14 -12 11 -3 -3 -23 13 -44 34 -21 21
-44 39 -50 39 -6 0 -8 5 -5 10 3 6 0 10 -7 10 -8 0 -21 9 -31 20 -19 22 -23
23 -54 8z"/>
</g>
</svg>
